<?xml version="1.0" encoding="UTF-8"?>
<svg id="Layer_2" data-name="Layer 2" xmlns="http://www.w3.org/2000/svg" viewBox="0 0 660.5 767.61">
  <defs>
    <style>
      .cls-1 {
        stroke-width: 60px;
      }

      .cls-1, .cls-2 {
        stroke-linecap: round;
      }

      .cls-1, .cls-2, .cls-3 {
        fill: none;
        stroke: #ff6a00;
        stroke-linejoin: round;
      }

      .cls-4 {
        fill: #ff901c;
      }

      .cls-2, .cls-3 {
        stroke-width: 40px;
      }

      .cls-3 {
        stroke-linecap: square;
      }
    </style>
  </defs>
  <g id="Layer_1-2" data-name="Layer 1">
    <g>
      <g>
        <path class="cls-4" d="M340.5,437h-.02l-320-.27c-11.04,0-19.98-8.96-19.98-20v-89.73c0-11.05,8.95-20,20-20h142c11.05,0,20,8.95,20,20s-8.95,20-20,20H40.5v49.75l300.02.25c11.05,0,19.99,8.97,19.98,20.02,0,11.04-8.96,19.98-20,19.98Z"/>
        <path class="cls-4" d="M61.2,347.23c-9.38,0-21.24-6.58-19.61-16.17,11.15-65.31,3.22-118.43,41.94-176.11,40.29-60.02,101.7-103.26,172.9-121.75,10.69-2.78,21.61,3.64,24.38,14.33,2.78,10.69-3.64,21.61-14.33,24.38-124.41,32.31-207.69,138.51-185.64,251.49,2.12,10.84-4.96,21.34-15.8,23.46-1.29.25-2.58.37-3.85.37Z"/>
        <path class="cls-4" d="M261.5,241c-11.05,0-20-8.95-20-20V20c0-5.31,2.11-10.41,5.88-14.16C251.13,2.1,256.21,0,261.5,0h.06l78,.22c11.05.03,19.97,9.01,19.94,20.06-.03,11.03-8.98,19.94-20,19.94h-.06l-57.94-.16v180.94c0,11.05-8.95,20-20,20Z"/>
        <path class="cls-4" d="M320.5,437c-11.04,0-19.99-8.94-20-19.98,0-11.05,8.94-20.01,19.98-20.02l300.02-.25v-49.75h-122c-11.05,0-20-8.95-20-20s8.95-20,20-20h142c11.05,0,20,8.95,20,20v89.73c0,11.04-8.94,19.99-19.98,20l-320,.27h-.02Z"/>
        <path class="cls-4" d="M600.09,347.2c-1.27,0-2.56-.12-3.85-.37-10.84-2.12-17.92-12.62-15.8-23.46,22.04-112.98-61.23-219.19-185.64-251.49-10.69-2.78-17.11-13.69-14.33-24.38,2.78-10.69,13.7-17.11,24.38-14.33,71.21,18.49,132.61,61.73,172.9,121.75,38.73,57.69,28.86,92.01,41.94,176.12,1.5,9.61-10.23,16.17-19.61,16.17Z"/>
        <g>
          <path class="cls-4" d="M399.5,221V20s-78,.22-78,.22h18s-78-.22-78-.22v201l-.03-168.45C120.89,89.06,38.6,211.26,61.22,327.23l101.28-.23H20.5v89.73l320,.27h-20l320-.27v-89.73s-40.41,0-40.41,0h-101.59s101.57.2,101.57.2c22.63-115.97-59.67-238.17-200.24-274.68"/>
          <path class="cls-4" d="M399.5,241c-11.05,0-20-8.95-20-20V40.06l-57.94.16h-.06c-11.02,0-19.97-8.92-20-19.94-.03-11.05,8.9-20.03,19.94-20.06L399.44,0c5.27-.01,10.42,2.09,14.18,5.84,3.76,3.75,5.88,8.85,5.88,14.16v201c0,11.05-8.95,20-20,20Z"/>
        </g>
      </g>
      <g>
        <g>
          <polyline class="cls-3" points="340 417.5 20 417.23 20 327.5 60.41 327.5 162 327.5"/>
          <path class="cls-2" d="M260.97,53.05C120.39,89.56,57,205.31,60.72,327.73"/>
          <polyline class="cls-3" points="261 221.5 261 20.5 339 20.72"/>
          <polyline class="cls-3" points="320 417.5 640 417.23 640 327.5 599.59 327.5 498 327.5"/>
          <path class="cls-2" d="M399.32,53.02c140.58,36.5,203.97,136.84,200.24,274.68"/>
          <polyline class="cls-3" points="399 221.5 399 20.5 321 20.72"/>
        </g>
        <path class="cls-2" d="M573.61,419.67l-22.26,280.69c-8.95,52.83-241.3,46.4-222.47,47.26"/>
        <polyline class="cls-1" points="226.08 570.75 303.34 646.67 448.03 504.65"/>
      </g>
      <path class="cls-2" d="M81.98,419.67l22.26,280.69"/>
      <path class="cls-2" d="M104.24,700.36c8.95,52.83,243.46,46.4,224.64,47.26"/>
    </g>
  </g>
</svg>